<svg xmlns="http://www.w3.org/2000/svg" width="12" height="12" viewBox="0 0 12 12">
  <defs>
    <style>
      .cls-1 {
        fill: #179f7a;
      }
    </style>
  </defs>
  <path id="电话_填充" class="cls-1" d="M124.117,107.759c.493-.855.22-1.512-.653-2.169-1.026-.772-2.029-1.292-2.75-.46,0,0-.765.908-3.018-1.217-2.619-2.488-1.52-3.37-1.52-3.37.911-.913.332-1.593-.432-2.624s-1.535-1.357-2.643-.471c-2.135,1.709.875,5.721,2.4,7.281h0a23.021,23.021,0,0,0,3.771,3.18l.779.434a3.5,3.5,0,0,0,3.256.3A2.307,2.307,0,0,0,124.117,107.759Z" transform="translate(-112.361 -96.934)"/>
</svg>
